<mxfile host="app.diagrams.net" modified="2022-01-08T08:22:25.949Z" agent="5.0 (Windows)" etag="yrr-LGgnjXS5zK__G_2v" version="16.2.1" type="github">
  <diagram id="iMQK6x20kkaIyivmuXbJ" name="第 1 页">
    <mxGraphModel dx="687" dy="371" grid="1" gridSize="1" guides="1" tooltips="1" connect="1" arrows="1" fold="1" page="1" pageScale="1" pageWidth="827" pageHeight="1169" math="0" shadow="0">
      <root>
        <mxCell id="0" />
        <mxCell id="1" parent="0" />
        <mxCell id="7jzLRePLUvwEAjksfmV3-1" value="&lt;div style=&quot;font-size: 8px&quot;&gt;&lt;font style=&quot;font-size: 14px&quot;&gt;五恒&lt;/font&gt;&lt;/div&gt;&lt;div style=&quot;font-size: 8px&quot;&gt;&lt;font style=&quot;font-size: 14px&quot;&gt;控制盒&lt;/font&gt;&lt;/div&gt;" style="whiteSpace=wrap;html=1;aspect=fixed;strokeWidth=0.1;fontSize=8;fillColor=#60a917;strokeColor=none;fontColor=#ffffff;" parent="1" vertex="1">
          <mxGeometry x="350" y="330" width="150" height="150" as="geometry" />
        </mxCell>
        <mxCell id="cq_kMFZ_uq-HYSkm1NEV-5" value="&lt;font style=&quot;font-size: 6px;&quot;&gt;RS485&lt;/font&gt;" style="rounded=0;whiteSpace=wrap;html=1;strokeWidth=0.1;fontSize=6;fillColor=#eeeeee;strokeColor=none;" vertex="1" parent="1">
          <mxGeometry x="356" y="470" width="22" height="10" as="geometry" />
        </mxCell>
        <mxCell id="cq_kMFZ_uq-HYSkm1NEV-6" value="&lt;font style=&quot;font-size: 6px;&quot;&gt;RS485&lt;/font&gt;" style="rounded=0;whiteSpace=wrap;html=1;strokeWidth=0.1;fontSize=6;fillColor=#eeeeee;strokeColor=none;" vertex="1" parent="1">
          <mxGeometry x="394" y="470" width="22" height="10" as="geometry" />
        </mxCell>
        <mxCell id="cq_kMFZ_uq-HYSkm1NEV-7" value="&lt;font style=&quot;font-size: 6px;&quot;&gt;RS485&lt;/font&gt;" style="rounded=0;whiteSpace=wrap;html=1;strokeWidth=0.1;fontSize=6;fillColor=#eeeeee;strokeColor=none;" vertex="1" parent="1">
          <mxGeometry x="434" y="470" width="22" height="10" as="geometry" />
        </mxCell>
        <mxCell id="7jzLRePLUvwEAjksfmV3-7" value="&lt;div style=&quot;font-size: 8px&quot;&gt;&lt;font style=&quot;font-size: 6px&quot;&gt;开关量输入&lt;/font&gt;&lt;/div&gt;&lt;div style=&quot;font-size: 8px&quot;&gt;&lt;font style=&quot;font-size: 6px&quot;&gt;预留8路&lt;br style=&quot;font-size: 8px&quot;&gt;&lt;/font&gt;&lt;/div&gt;" style="rounded=0;whiteSpace=wrap;html=1;strokeWidth=0.1;fontSize=8;fillColor=#eeeeee;strokeColor=none;" parent="1" vertex="1">
          <mxGeometry x="350" y="365" width="44.85" height="26" as="geometry" />
        </mxCell>
        <mxCell id="7jzLRePLUvwEAjksfmV3-9" value="&lt;div style=&quot;font-size: 8px&quot;&gt;&lt;font style=&quot;font-size: 6px&quot;&gt;开关量输出&lt;/font&gt;&lt;/div&gt;&lt;div style=&quot;font-size: 8px&quot;&gt;&lt;font style=&quot;font-size: 6px&quot;&gt;预留8路&lt;br style=&quot;font-size: 8px&quot;&gt;&lt;/font&gt;&lt;/div&gt;" style="rounded=0;whiteSpace=wrap;html=1;strokeWidth=0.1;fontSize=8;fillColor=#eeeeee;strokeColor=none;" parent="1" vertex="1">
          <mxGeometry x="350" y="412.75" width="43.85" height="28" as="geometry" />
        </mxCell>
        <mxCell id="7jzLRePLUvwEAjksfmV3-17" value="&lt;font style=&quot;font-size: 6px&quot;&gt;时钟&lt;/font&gt;" style="rounded=0;whiteSpace=wrap;html=1;strokeWidth=0.1;fontSize=8;fillColor=#eeeeee;strokeColor=none;" parent="1" vertex="1">
          <mxGeometry x="422" y="330.5" width="36" height="16" as="geometry" />
        </mxCell>
        <mxCell id="7jzLRePLUvwEAjksfmV3-19" value="&lt;font style=&quot;font-size: 6px&quot;&gt;看门狗&lt;/font&gt;" style="rounded=0;whiteSpace=wrap;html=1;strokeWidth=0.1;fontSize=8;fillColor=#eeeeee;strokeColor=none;" parent="1" vertex="1">
          <mxGeometry x="468" y="412" width="32" height="13" as="geometry" />
        </mxCell>
        <mxCell id="cq_kMFZ_uq-HYSkm1NEV-15" style="edgeStyle=orthogonalEdgeStyle;rounded=0;orthogonalLoop=1;jettySize=auto;html=1;exitX=0.438;exitY=0.037;exitDx=0;exitDy=0;fontSize=8;startArrow=classic;strokeWidth=0.5;exitPerimeter=0;" edge="1" parent="1" source="7jzLRePLUvwEAjksfmV3-22" target="cq_kMFZ_uq-HYSkm1NEV-8">
          <mxGeometry relative="1" as="geometry" />
        </mxCell>
        <mxCell id="7jzLRePLUvwEAjksfmV3-22" value="交换机" style="rounded=0;whiteSpace=wrap;html=1;strokeWidth=0.1;fontSize=8;fillColor=#d5e8d4;strokeColor=none;" parent="1" vertex="1">
          <mxGeometry x="501" y="532" width="35" height="18" as="geometry" />
        </mxCell>
        <mxCell id="7jzLRePLUvwEAjksfmV3-23" value="&lt;div style=&quot;font-size: 8px&quot;&gt;&lt;font style=&quot;font-size: 6px&quot;&gt;RJ45&lt;/font&gt;&lt;/div&gt;&lt;div style=&quot;font-size: 8px&quot;&gt;&lt;font style=&quot;font-size: 6px&quot;&gt;预留1路&lt;/font&gt;&lt;br style=&quot;font-size: 8px&quot;&gt;&lt;/div&gt;" style="rounded=0;whiteSpace=wrap;html=1;strokeWidth=0.1;fontSize=8;fillColor=#eeeeee;strokeColor=none;" parent="1" vertex="1">
          <mxGeometry x="379" y="330" width="28" height="17" as="geometry" />
        </mxCell>
        <mxCell id="7jzLRePLUvwEAjksfmV3-46" value="&lt;div&gt;&lt;font style=&quot;font-size: 6px&quot;&gt;4G模块&lt;/font&gt;&lt;/div&gt;&lt;div&gt;&lt;font style=&quot;font-size: 6px&quot;&gt;预留&lt;/font&gt;&lt;/div&gt;" style="rounded=0;whiteSpace=wrap;html=1;strokeWidth=0.1;fontSize=8;fillColor=#eeeeee;strokeColor=none;" parent="1" vertex="1">
          <mxGeometry x="463" y="363" width="37" height="16" as="geometry" />
        </mxCell>
        <mxCell id="cq_kMFZ_uq-HYSkm1NEV-13" style="edgeStyle=orthogonalEdgeStyle;rounded=0;orthogonalLoop=1;jettySize=auto;html=1;entryX=0.5;entryY=1;entryDx=0;entryDy=0;fontSize=8;startArrow=classic;strokeWidth=0.5;" edge="1" parent="1" source="cq_kMFZ_uq-HYSkm1NEV-2" target="cq_kMFZ_uq-HYSkm1NEV-5">
          <mxGeometry relative="1" as="geometry" />
        </mxCell>
        <mxCell id="cq_kMFZ_uq-HYSkm1NEV-2" value="&lt;div&gt;&lt;font style=&quot;font-size: 8px&quot;&gt;温控器&lt;/font&gt;、&lt;/div&gt;&lt;div&gt;空气质量传感器、&lt;/div&gt;&lt;div&gt;继电器扩展板&lt;br&gt;&lt;/div&gt;" style="rounded=0;whiteSpace=wrap;html=1;strokeWidth=0.1;fontSize=8;fillColor=#d5e8d4;strokeColor=none;" vertex="1" parent="1">
          <mxGeometry x="310" y="531" width="74" height="31" as="geometry" />
        </mxCell>
        <mxCell id="cq_kMFZ_uq-HYSkm1NEV-22" style="edgeStyle=orthogonalEdgeStyle;rounded=0;orthogonalLoop=1;jettySize=auto;html=1;exitX=0.5;exitY=0;exitDx=0;exitDy=0;entryX=0.5;entryY=1;entryDx=0;entryDy=0;fontSize=8;startArrow=classic;strokeWidth=0.5;" edge="1" parent="1" source="cq_kMFZ_uq-HYSkm1NEV-3" target="cq_kMFZ_uq-HYSkm1NEV-6">
          <mxGeometry relative="1" as="geometry" />
        </mxCell>
        <mxCell id="cq_kMFZ_uq-HYSkm1NEV-3" value="&lt;div style=&quot;font-size: 8px&quot;&gt;新风机&lt;/div&gt;" style="rounded=0;whiteSpace=wrap;html=1;strokeWidth=0.1;fontSize=8;fillColor=#d5e8d4;strokeColor=none;" vertex="1" parent="1">
          <mxGeometry x="399" y="532" width="47" height="22" as="geometry" />
        </mxCell>
        <mxCell id="cq_kMFZ_uq-HYSkm1NEV-14" style="edgeStyle=orthogonalEdgeStyle;rounded=0;orthogonalLoop=1;jettySize=auto;html=1;entryX=0.5;entryY=1;entryDx=0;entryDy=0;fontSize=8;startArrow=classic;strokeWidth=0.5;exitX=0.419;exitY=0.03;exitDx=0;exitDy=0;exitPerimeter=0;" edge="1" parent="1" source="cq_kMFZ_uq-HYSkm1NEV-4" target="cq_kMFZ_uq-HYSkm1NEV-7">
          <mxGeometry relative="1" as="geometry" />
        </mxCell>
        <mxCell id="cq_kMFZ_uq-HYSkm1NEV-4" value="冷热源主机" style="rounded=0;whiteSpace=wrap;html=1;strokeWidth=0.1;fontSize=8;fillColor=#d5e8d4;strokeColor=none;" vertex="1" parent="1">
          <mxGeometry x="458" y="532" width="31" height="22" as="geometry" />
        </mxCell>
        <mxCell id="cq_kMFZ_uq-HYSkm1NEV-8" value="&lt;div style=&quot;font-size: 6px;&quot;&gt;&lt;font style=&quot;font-size: 6px;&quot;&gt;RJ45&lt;/font&gt;&lt;/div&gt;" style="rounded=0;whiteSpace=wrap;html=1;strokeWidth=0.1;fontSize=6;fillColor=#eeeeee;strokeColor=none;" vertex="1" parent="1">
          <mxGeometry x="476" y="470" width="16" height="10" as="geometry" />
        </mxCell>
      </root>
    </mxGraphModel>
  </diagram>
</mxfile>
